<svg width="20" height="20" viewBox="0 0 20 20" fill="none" xmlns="http://www.w3.org/2000/svg">
<path d="M10.0004 1.25155C10.0004 1.25155 15.158 1.02093 17.8925 6.1866H9.56158C9.56158 6.1866 7.98937 6.1361 6.64635 8.03662C6.26056 8.83432 5.84587 9.65603 6.31123 11.2754C5.64085 10.1437 2.7522 5.13187 2.7522 5.13187C2.7522 5.13187 4.7897 1.45577 10.0004 1.25155H10.0004Z" fill="#EF3F36"/>
<path d="M17.6247 14.3648C17.6247 14.3648 15.2448 18.9322 9.39038 18.7064C10.1138 17.4594 13.557 11.5177 13.557 11.5177C13.557 11.5177 14.3889 10.1866 13.4075 8.07712C12.9083 7.34431 12.3995 6.57787 10.76 6.16937C12.0789 6.15743 17.878 6.16937 17.878 6.16937C17.878 6.16937 20.0504 9.76618 17.6247 14.3648Z" fill="#FCD900"/>
<path d="M2.41207 14.4016C2.41207 14.4016 -0.36812 10.0648 2.75685 5.125C3.47783 6.372 6.92107 12.3138 6.92107 12.3138C6.92107 12.3138 7.66376 13.6977 9.98577 13.9042C10.8708 13.8394 11.7918 13.7841 12.9686 12.5756C12.3198 13.7193 9.40941 18.7168 9.40941 18.7168C9.40941 18.7168 5.19459 18.7937 2.412 14.4016H2.41207Z" fill="#61BC5B"/>
<path d="M9.38794 18.7508L10.5598 13.8783C10.5598 13.8783 11.8474 13.7773 12.9277 12.5977C12.2573 13.7726 9.38794 18.7508 9.38794 18.7508V18.7508Z" fill="#5AB055"/>
<path d="M6.07483 10.0539C6.07483 7.906 7.82302 6.16406 9.97864 6.16406C12.1343 6.16406 13.8824 7.906 13.8824 10.0539C13.8824 12.2019 12.1343 13.9437 9.97864 13.9437C7.82302 13.9414 6.07483 12.2019 6.07483 10.0539V10.0539Z" fill="white"/>
<path d="M6.72827 10.0552C6.72827 8.26763 8.1823 6.81641 9.9787 6.81641C11.7726 6.81641 13.2291 8.26524 13.2291 10.0552C13.2291 11.8428 11.7751 13.294 9.9787 13.294C8.18469 13.294 6.72827 11.8428 6.72827 10.0552V10.0552Z" fill="url(#paint0_linear_1256_4440)"/>
<path d="M17.8755 6.17314L13.0506 7.5835C13.0506 7.5835 12.3224 6.51907 10.7576 6.17314C12.1151 6.1659 17.8755 6.17314 17.8755 6.17314V6.17314Z" fill="#EACA05"/>
<path d="M6.21721 11.0986C5.53958 9.92852 2.7522 5.13281 2.7522 5.13281L6.32568 8.6551C6.32568 8.6551 5.95913 9.40716 6.09663 10.4835L6.21714 11.0986H6.21721Z" fill="#DF3A32"/>
<defs>
<linearGradient id="paint0_linear_1256_4440" x1="9.97854" y1="6.86214" x2="9.97854" y2="13.099" gradientUnits="userSpaceOnUse">
<stop stop-color="#3AFF59"/>
<stop offset="1" stop-color="#1072BA"/>
</linearGradient>
</defs>
</svg>
