<svg width="18" height="18" viewBox="0 0 18 18" fill="none" xmlns="http://www.w3.org/2000/svg">
<path fill-rule="evenodd" clip-rule="evenodd" d="M16.4033 2.11836C16.7522 2.34163 16.854 2.80545 16.6307 3.15434L12.9307 8.93634C12.5316 9.55998 11.6784 9.70436 11.097 9.23836L7.26311 6.17069L5.84308 9.0819C5.66148 9.45418 5.21247 9.60877 4.84019 9.42717C4.4679 9.24558 4.31332 8.79657 4.49491 8.42429L6.05147 5.2332C6.40297 4.51112 7.33297 4.3056 7.95651 4.80444L11.8172 7.89355L15.3673 2.34584C15.5905 1.99694 16.0544 1.8951 16.4033 2.11836Z" fill="#0CED1E" fill-opacity="0.4"/>
<path fill-rule="evenodd" clip-rule="evenodd" d="M4.03581 11.0761C4.4081 11.2577 4.5627 11.7067 4.38112 12.079L2.67402 15.579C2.49244 15.9513 2.04343 16.1059 1.67114 15.9243C1.29885 15.7427 1.14425 15.2937 1.32583 14.9214L3.03293 11.4214C3.21452 11.0491 3.66352 10.8945 4.03581 11.0761Z" fill="#0CED1E" fill-opacity="0.4"/>
<path fill-rule="evenodd" clip-rule="evenodd" d="M1.25 8.75C1.25 8.33579 1.58579 8 2 8H5.171C5.35637 8 5.53517 8.06865 5.67291 8.1927L11.0293 13.0167L15.5314 9.41439C15.8549 9.1556 16.3268 9.20801 16.5856 9.53143C16.8444 9.85486 16.792 10.3268 16.4686 10.5856L11.8009 14.3204C11.3228 14.7034 10.6377 14.6829 10.1829 14.2732L4.88305 9.5H2C1.58579 9.5 1.25 9.16421 1.25 8.75ZM11.1867 13.1585C11.1865 13.1584 11.1868 13.1586 11.1867 13.1585Z" fill="#0CED1E"/>
</svg>
