<svg width="18" height="18" viewBox="0 0 18 18" fill="none" xmlns="http://www.w3.org/2000/svg">
<path opacity="0.4" d="M3.8213 12H1.75C1.3359 12 1 11.6641 1 11.25C1 10.8359 1.3359 10.5 1.75 10.5H3.8213C4.2354 10.5 4.5713 10.8359 4.5713 11.25C4.5713 11.6641 4.2354 12 3.8213 12Z" fill="#0CED1E"/>
<path opacity="0.4" d="M4.4268 8H1.75C1.3359 8 1 7.6641 1 7.25C1 6.8359 1.3359 6.5 1.75 6.5H4.4268C4.8409 6.5 5.1768 6.8359 5.1768 7.25C5.1768 7.6641 4.8409 8 4.4268 8Z" fill="#0CED1E"/>
<path opacity="0.4" d="M12.25 4H1.75C1.3359 4 1 3.6641 1 3.25C1 2.8359 1.3359 2.5 1.75 2.5H12.25C12.6641 2.5 13 2.8359 13 3.25C13 3.6641 12.6641 4 12.25 4Z" fill="#0CED1E"/>
<path d="M16.7803 15.2198L14.5866 13.0264C15.1549 12.2437 15.5001 11.2891 15.5001 10.25C15.5001 7.6309 13.3692 5.5 10.7501 5.5C8.13102 5.5 6.00012 7.6309 6.00012 10.25C6.00012 12.8691 8.13102 15 10.7501 15C11.7891 15 12.7433 14.655 13.5261 14.0869L15.7198 16.2803C15.8663 16.4268 16.0577 16.5 16.2501 16.5C16.4425 16.5 16.6339 16.4268 16.7804 16.2803C17.0734 15.9873 17.0733 15.5127 16.7803 15.2198ZM7.50002 10.2501C7.50002 8.4581 8.95802 7.0001 10.75 7.0001C12.542 7.0001 14 8.4581 14 10.2501C14 12.0421 12.542 13.5001 10.75 13.5001C8.95802 13.5001 7.50002 12.0421 7.50002 10.2501Z" fill="#0CED1E"/>
</svg>
