<svg width="18" height="18" viewBox="0 0 18 18" fill="none" xmlns="http://www.w3.org/2000/svg">
<path opacity="0.4" d="M15.25 11C14.836 11 14.5 11.336 14.5 11.75V13.25C14.5 13.939 13.939 14.5 13.25 14.5H4.75C4.061 14.5 3.5 13.939 3.5 13.25V11.75C3.5 11.336 3.164 11 2.75 11C2.336 11 2 11.336 2 11.75V13.25C2 14.767 3.233 16 4.75 16H13.25C14.767 16 16 14.767 16 13.25V11.75C16 11.336 15.664 11 15.25 11Z" fill="#0CED1E"/>
<path d="M6.03002 6.77981L8.25002 4.55984V10.2488C8.25002 10.6628 8.58602 10.9988 9.00002 10.9988C9.41402 10.9988 9.75002 10.6628 9.75002 10.2488V4.56082L11.97 6.78079C12.116 6.92679 12.308 7.00076 12.5 7.00076C12.692 7.00076 12.884 6.92779 13.03 6.78079C13.323 6.48779 13.323 6.01275 13.03 5.71975L9.53002 2.21975C9.23702 1.92675 8.76202 1.92675 8.46902 2.21975L4.96902 5.71975C4.67602 6.01275 4.67602 6.48779 4.96902 6.78079C5.26202 7.07379 5.73702 7.07281 6.03002 6.77981Z" fill="#0CED1E"/>
</svg>
