<svg width="18" height="18" viewBox="0 0 18 18" fill="none" xmlns="http://www.w3.org/2000/svg">
<path opacity="0.4" d="M12.66 11.5995C12.8039 11.4149 12.9429 11.2255 13.0678 11.0228C13.2856 10.6703 13.1757 10.2083 12.8232 9.9911C12.4711 9.7743 12.0092 9.8822 11.7915 10.2357C10.917 11.6532 9.4062 12.4999 7.75 12.4999C5.1309 12.4999 3 10.369 3 7.7499C3 5.1308 5.1309 2.9999 7.75 2.9999C7.9741 2.9999 8.1934 3.0219 8.4092 3.0517C8.815 3.1074 9.1988 2.8222 9.2549 2.4121C9.312 2.0019 9.0259 1.623 8.6153 1.5664C8.3321 1.5268 8.0445 1.5 7.7501 1.5C4.3037 1.4999 1.5 4.3036 1.5 7.7499C1.5 11.1962 4.3037 13.9999 7.75 13.9999C9.1786 13.9999 10.5192 13.5148 11.6007 12.661L15.2197 16.2801C15.3662 16.4266 15.5581 16.4998 15.75 16.4998C15.9419 16.4998 16.1338 16.4266 16.2803 16.2801C16.5733 15.9871 16.5733 15.5125 16.2803 15.2196L12.66 11.5995Z" fill="#0CED1E"/>
<path d="M16.4873 4.0381L14.5928 3.4072L13.9615 1.5127C13.8594 1.207 13.5728 1 13.2501 1C12.9274 1 12.6407 1.207 12.5387 1.5127L11.9074 3.4072L10.0129 4.0381C9.70674 4.1406 9.50024 4.4268 9.50024 4.75C9.50024 5.0732 9.70674 5.3594 10.0129 5.4619L11.9074 6.0928L12.5387 7.9873C12.6408 8.293 12.9274 8.5 13.2501 8.5C13.5728 8.5 13.8595 8.293 13.9615 7.9873L14.5928 6.0928L16.4873 5.4619C16.7935 5.3594 17 5.0732 17 4.75C17 4.4268 16.7935 4.1406 16.4873 4.0381Z" fill="#0CED1E"/>
</svg>
