<svg width="10" height="10" viewBox="0 0 10 10" fill="none" xmlns="http://www.w3.org/2000/svg">
<path opacity="0.4" d="M1.66623 7.361V2.63878C1.66623 2.39545 1.71379 2.16539 1.78245 1.94434H1.52734C0.838065 1.94434 0.277344 2.50506 0.277344 3.19434V6.80545C0.277344 7.49472 0.838065 8.05545 1.52734 8.05545H1.78245C1.71379 7.83439 1.66623 7.60434 1.66623 7.361Z" fill="#2E2F30"/>
<path opacity="0.4" d="M8.33302 7.361V2.63878C8.33302 2.39545 8.28546 2.16539 8.2168 1.94434H8.47191C9.16119 1.94434 9.72191 2.50506 9.72191 3.19434V6.80545C9.72191 7.49472 9.16119 8.05545 8.47191 8.05545H8.2168C8.28546 7.83439 8.33302 7.60434 8.33302 7.361Z" fill="#2E2F30"/>
<path d="M5.97221 1.11133H4.02778C3.18401 1.11133 2.5 1.79534 2.5 2.63911V7.36133C2.5 8.20511 3.18401 8.88911 4.02778 8.88911H5.97221C6.81599 8.88911 7.49999 8.20511 7.49999 7.36133V2.63911C7.49999 1.79534 6.81599 1.11133 5.97221 1.11133Z" fill="#2E2F30"/>
</svg>
