<svg width="10" height="10" viewBox="0 0 10 10" fill="none" xmlns="http://www.w3.org/2000/svg">
<g clip-path="url(#clip0_1644_800)">
<path fill-rule="evenodd" clip-rule="evenodd" d="M2.08365 2.89176L7.91699 2.8916C8.02749 2.8916 8.13349 2.9355 8.2116 3.01364C8.28977 3.09178 8.33366 3.19776 8.33366 3.30827V9.02782C8.33366 9.25794 8.1471 9.44449 7.91699 9.44449H2.08366C1.85354 9.44449 1.66699 9.25794 1.66699 9.02782V3.30843C1.66699 3.07832 1.85353 2.89177 2.08365 2.89176Z" fill="#2E2F30" fill-opacity="0.4"/>
<path fill-rule="evenodd" clip-rule="evenodd" d="M1.56113 1.04641C1.73407 0.743292 2.05654 0.555664 2.40581 0.555664H7.59305C7.94183 0.555664 8.2651 0.742881 8.43827 1.04641L9.38521 2.71073C9.4516 2.82749 9.45766 2.96911 9.40149 3.09113C9.07288 3.80435 8.35405 4.30566 7.51194 4.30566C7.0361 4.30566 6.6026 4.1434 6.25588 3.87706C5.90927 4.14338 5.47599 4.30566 4.9997 4.30566C4.5233 4.30566 4.08972 4.143 3.74304 3.87656C3.39636 4.143 2.96278 4.30566 2.48638 4.30566C1.64362 4.30566 0.925387 3.80428 0.596826 3.09113C0.540583 2.96905 0.546684 2.82734 0.61321 2.71054L1.56113 1.04641Z" fill="#2E2F30"/>
<path d="M3.88867 8.88905V6.94461C3.88867 6.33116 4.38633 5.8335 4.99978 5.8335C5.61323 5.8335 6.11089 6.33116 6.11089 6.94461V8.88905H3.88867Z" fill="#2E2F30"/>
<path fill-rule="evenodd" clip-rule="evenodd" d="M0.555664 9.02799C0.555664 8.79788 0.742214 8.61133 0.972331 8.61133H9.02789C9.258 8.61133 9.44455 8.79788 9.44455 9.02799C9.44455 9.25811 9.258 9.44466 9.02789 9.44466H0.972331C0.742214 9.44466 0.555664 9.25811 0.555664 9.02799Z" fill="#2E2F30"/>
</g>
<defs>
<clipPath id="clip0_1644_800">
<rect width="10" height="10" fill="white"/>
</clipPath>
</defs>
</svg>
