<svg width="10" height="10" viewBox="0 0 10 10" fill="none" xmlns="http://www.w3.org/2000/svg">
<g clip-path="url(#clip0_1644_795)">
<path d="M8.8885 4.30566C8.80183 4.30566 8.71405 4.27844 8.63905 4.22233L5.00017 1.49344L1.36128 4.22233C1.17739 4.36122 0.915169 4.32289 0.777947 4.139C0.639614 3.95455 0.676836 3.69344 0.860725 3.55566L4.75017 0.638997C4.89906 0.527886 5.10184 0.527886 5.25017 0.638997L9.13905 3.55566C9.32294 3.694 9.36016 3.95511 9.22183 4.139C9.14072 4.24789 9.01572 4.30566 8.8885 4.30566Z" fill="#2E2F30"/>
<path d="M8.13866 4.88911L5.00033 2.53467L1.86199 4.88911C1.80033 4.93522 1.73477 4.97356 1.66699 5.00745V7.91688C1.66699 8.75966 2.35199 9.44466 3.19477 9.44466H4.58366V7.36133C4.58366 7.13133 4.77033 6.94466 5.00033 6.94466C5.23033 6.94466 5.41699 7.13133 5.41699 7.36133V9.44466H6.80588C7.64866 9.44466 8.33366 8.75966 8.33366 7.91688V5.00745C8.26588 4.97356 8.20033 4.93522 8.13866 4.88911Z" fill="#2E2F30" fill-opacity="0.4"/>
</g>
<defs>
<clipPath id="clip0_1644_795">
<rect width="10" height="10" fill="white"/>
</clipPath>
</defs>
</svg>
