<svg width="18" height="18" viewBox="0 0 18 18" fill="none" xmlns="http://www.w3.org/2000/svg">
<g clip-path="url(#clip0_1644_791)">
<path d="M14.8696 0H3.13043C1.40154 0 0 1.40154 0 3.13043V14.8696C0 16.5985 1.40154 18 3.13043 18H14.8696C16.5985 18 18 16.5985 18 14.8696V3.13043C18 1.40154 16.5985 0 14.8696 0Z" fill="url(#paint0_linear_1644_791)"/>
<mask id="mask0_1644_791" style="mask-type:luminance" maskUnits="userSpaceOnUse" x="3" y="3" width="12" height="12">
<path d="M14.3476 3.65234H3.39111V14.348H14.3476V3.65234Z" fill="white"/>
</mask>
<g mask="url(#mask0_1644_791)">
<path fill-rule="evenodd" clip-rule="evenodd" d="M6.32335 14.1342C6.32335 14.2285 6.42582 14.2869 6.50666 14.2387L8.77863 12.884C8.86438 12.8329 8.91694 12.7403 8.91694 12.6403V6.37285C8.91694 6.30573 8.97123 6.25131 9.03822 6.25131H12.5581C12.6555 6.25131 12.7459 6.2012 12.7977 6.11866L14.2282 3.83858C14.279 3.75763 14.2209 3.65234 14.1255 3.65234H5.17827C5.08096 3.65234 4.99049 3.70243 4.93868 3.78497L4.55771 4.39209C4.51738 4.4564 4.54511 4.5416 4.61552 4.56969L8.66119 6.18372C8.73274 6.21228 8.75995 6.29965 8.7173 6.36393L6.39775 9.86028C6.34923 9.9332 6.32335 10.0191 6.32335 10.107V14.1342Z" fill="black"/>
<path fill-rule="evenodd" clip-rule="evenodd" d="M4.38583 4.92251C4.32937 4.87621 4.24517 4.88998 4.20632 4.95189L3.50805 6.06502C3.45729 6.14596 3.51533 6.25125 3.61073 6.25125H5.66615C5.78012 6.25125 5.83117 6.10798 5.74297 6.03564L4.38583 4.92251Z" fill="black"/>
</g>
</g>
<defs>
<linearGradient id="paint0_linear_1644_791" x1="0" y1="9" x2="18" y2="9" gradientUnits="userSpaceOnUse">
<stop stop-color="#72FD4E"/>
<stop offset="1" stop-color="#AAFE24"/>
</linearGradient>
<clipPath id="clip0_1644_791">
<rect width="18" height="18" fill="white"/>
</clipPath>
</defs>
</svg>
