<svg width="10" height="10" viewBox="0 0 10 10" fill="none" xmlns="http://www.w3.org/2000/svg">
<g clip-path="url(#clip0_1644_819)">
<path fill-rule="evenodd" clip-rule="evenodd" d="M0.308259 7.54212C0.747766 6.37562 1.87188 5.54346 3.19483 5.54346C4.51778 5.54346 5.6419 6.37562 6.0814 7.54212C6.28146 8.07318 5.95996 8.61979 5.47038 8.78357C4.90381 8.97285 4.12628 9.15401 3.19539 9.15401C2.26452 9.15401 1.48667 8.9729 0.919616 8.78368C0.429064 8.62029 0.108655 8.07301 0.308259 7.54212Z" fill="#2E2F30"/>
<path d="M6.97431 7.76514C7.77009 7.73108 8.43975 7.56936 8.94303 7.40125C9.43259 7.23747 9.75409 6.69086 9.55403 6.15975C9.11453 4.99332 7.99042 4.16113 6.66748 4.16113C5.86642 4.16113 5.13824 4.46625 4.59082 4.96595C5.63803 5.36563 6.46736 6.2018 6.86164 7.24819C6.9272 7.4223 6.96353 7.59575 6.97431 7.76514Z" fill="#2E2F30" fill-opacity="0.4"/>
<path d="M3.19531 4.72266C3.88568 4.72266 4.44531 4.16328 4.44531 3.47266C4.44531 2.78203 3.88568 2.22266 3.19531 2.22266C2.50494 2.22266 1.94531 2.78203 1.94531 3.47266C1.94531 4.16328 2.50494 4.72266 3.19531 4.72266Z" fill="#2E2F30"/>
<path d="M6.66699 3.3335C7.35738 3.3335 7.91699 2.77412 7.91699 2.0835C7.91699 1.39287 7.35738 0.833496 6.66699 0.833496C5.9766 0.833496 5.41699 1.39287 5.41699 2.0835C5.41699 2.77412 5.9766 3.3335 6.66699 3.3335Z" fill="#2E2F30" fill-opacity="0.4"/>
</g>
<defs>
<clipPath id="clip0_1644_819">
<rect width="10" height="10" fill="white"/>
</clipPath>
</defs>
</svg>
