<svg width="10" height="10" viewBox="0 0 10 10" fill="none" xmlns="http://www.w3.org/2000/svg">
<g clip-path="url(#clip0_1644_815)">
<path d="M7.48978 9.05015C7.42361 9.05015 7.35683 9.03442 7.29611 9.00242L5.0001 7.79581L2.7041 9.00242C2.5636 9.07592 2.3932 9.06348 2.2652 8.9707C2.13715 8.87737 2.07315 8.71926 2.09971 8.56298L2.5386 6.00709L0.681486 4.19692C0.568098 4.08625 0.526876 3.92047 0.576209 3.7697C0.625042 3.61886 0.755264 3.50903 0.912598 3.4862L3.47876 3.1132L4.6262 0.787917C4.76726 0.503637 5.23276 0.503637 5.37382 0.787917L6.52128 3.1132L9.08744 3.4862C9.24478 3.50897 9.375 3.61886 9.42383 3.7697C9.47322 3.92053 9.43194 4.08625 9.31855 4.19692L7.46144 6.00709L7.90033 8.56298C7.92694 8.7192 7.86289 8.87737 7.73483 8.9707C7.66211 9.02331 7.57605 9.05015 7.48978 9.05015Z" fill="#2E2F30" fill-opacity="0.4"/>
</g>
<defs>
<clipPath id="clip0_1644_815">
<rect width="10" height="10" fill="white"/>
</clipPath>
</defs>
</svg>
