<svg width="193" height="90" viewBox="0 0 193 90" fill="none" xmlns="http://www.w3.org/2000/svg">
<path d="M0.12207 14.2396C5.45562 11.2165 10.7887 8.19332 16.1222 7.15682C21.4553 6.12032 26.7888 5.60206 32.1219 5.60206C37.4555 5.60206 42.7885 11.5042 48.1221 15.6216C53.4556 19.739 58.7887 30.3054 64.1222 30.3054C69.4553 30.3054 74.7888 23.5681 80.1219 23.5681C85.4555 23.5681 90.7885 32.7239 96.1221 32.7239C101.456 32.7239 106.789 24.4319 112.122 23.7409C117.455 23.0499 122.789 23.3954 128.122 22.7044C133.455 22.0134 138.789 0.246796 144.122 0.246796C149.456 0.246796 154.789 27.6855 160.122 35.8334C165.455 43.9813 170.789 49.1352 176.122 49.1352C181.455 49.1352 186.789 37.6473 192.122 26.1594V89.7316C186.789 89.7316 181.455 89.7316 176.122 89.7316C170.789 89.7316 165.455 89.7316 160.122 89.7316C154.789 89.7316 149.456 89.7316 144.122 89.7316C138.789 89.7316 133.455 89.7316 128.122 89.7316C122.789 89.7316 117.455 89.7316 112.122 89.7316C106.789 89.7316 101.456 89.7316 96.1221 89.7316C90.7885 89.7316 85.4555 89.7316 80.1219 89.7316C74.7888 89.7316 69.4553 89.7316 64.1222 89.7316C58.7887 89.7316 53.4556 89.7316 48.1221 89.7316C42.7885 89.7316 37.4555 89.7316 32.1219 89.7316C26.7888 89.7316 21.4553 89.7316 16.1222 89.7316C10.7887 89.7316 5.45562 89.7316 0.12207 89.7316V14.2396Z" fill="url(#paint0_linear_2017_6851)"/>
<path d="M0.12207 14.2396C5.45562 11.2165 10.7887 8.19332 16.1222 7.15682C21.4553 6.12032 26.7888 5.60206 32.1219 5.60206C37.4555 5.60206 42.7885 11.5042 48.1221 15.6216C53.4556 19.739 58.7887 30.3054 64.1222 30.3054C69.4553 30.3054 74.7888 23.5681 80.1219 23.5681C85.4555 23.5681 90.7885 32.7239 96.1221 32.7239C101.456 32.7239 106.789 24.4319 112.122 23.7409C117.455 23.0499 122.789 23.3954 128.122 22.7044C133.455 22.0134 138.789 0.246796 144.122 0.246796C149.456 0.246796 154.789 27.6855 160.122 35.8334C165.455 43.9813 170.789 49.1352 176.122 49.1352C181.455 49.1352 186.789 37.6473 192.122 26.1594" stroke="#22C55E" stroke-width="0.493573"/>
<defs>
<linearGradient id="paint0_linear_2017_6851" x1="0.12207" y1="0.246796" x2="0.12207" y2="89.7316" gradientUnits="userSpaceOnUse">
<stop offset="0.05" stop-color="#22C55E" stop-opacity="0.3"/>
<stop offset="0.95" stop-color="#22C55E" stop-opacity="0"/>
</linearGradient>
</defs>
</svg>
