<svg width="16" height="16" viewBox="0 0 16 16" fill="none" xmlns="http://www.w3.org/2000/svg">
<path d="M13.2615 3.14184C13.2504 3.06184 13.1804 3.01756 13.1224 3.01268C12.6954 2.98059 12.2683 2.94876 11.8412 2.91718C11.8412 2.91718 10.9915 2.07362 10.8982 1.98025C10.8049 1.88693 10.6227 1.91531 10.5519 1.93614C10.5415 1.93921 10.3663 1.99329 10.0764 2.08299C9.79258 1.26622 9.29165 0.515644 8.41039 0.515644C8.38606 0.515644 8.36102 0.51663 8.33598 0.518055C8.08535 0.186603 7.77488 0.0426025 7.50672 0.0426025C5.45384 0.0426025 4.47308 2.6089 4.16557 3.91301C3.36787 4.16019 2.80119 4.33592 2.7288 4.35866C2.28354 4.49833 2.26946 4.51236 2.21099 4.93192C2.16699 5.24956 1.00195 14.2594 1.00195 14.2594L10.0802 15.9603L14.9991 14.8962C14.9991 14.8962 13.2723 3.22184 13.2615 3.14184ZM9.57467 2.23816L8.8065 2.47592C8.80678 2.42178 8.80705 2.36852 8.80705 2.31027C8.80705 1.80266 8.73658 1.39394 8.62354 1.06994C9.07762 1.12693 9.38004 1.64359 9.57467 2.23816ZM8.06026 1.1706C8.1865 1.48693 8.26858 1.9409 8.26858 2.55351C8.26858 2.58485 8.26831 2.61351 8.26804 2.64249C7.76847 2.79723 7.22562 2.96523 6.68157 3.13378C6.98705 1.95482 7.55965 1.3854 8.06026 1.1706ZM7.45034 0.593233C7.53894 0.593233 7.6282 0.623315 7.71362 0.682109C7.05571 0.991698 6.3505 1.77142 6.05269 3.32852L4.79867 3.7169C5.14749 2.52923 5.97582 0.593233 7.45034 0.593233Z" fill="#95BF46"/>
<path d="M13.1219 3.01282C12.6948 2.98073 12.2677 2.9489 11.8406 2.91732C11.8406 2.91732 10.9909 2.07376 10.8977 1.98039C10.8628 1.94565 10.8157 1.92784 10.7665 1.92017L10.0801 15.9603L14.9985 14.8963C14.9985 14.8963 13.2717 3.22197 13.2609 3.14197C13.2499 3.06197 13.1798 3.0177 13.1219 3.01282Z" fill="#5E8E3E"/>
<path d="M8.41084 5.73065L7.80432 7.53481C7.80432 7.53481 7.27292 7.2512 6.62152 7.2512C5.66656 7.2512 5.61851 7.85048 5.61851 8.0015C5.61851 8.8255 7.76646 9.14122 7.76646 11.0713C7.76646 12.5898 6.80333 13.5676 5.5047 13.5676C3.94635 13.5676 3.14941 12.5978 3.14941 12.5978L3.56667 11.2191C3.56667 11.2191 4.38585 11.9224 5.07709 11.9224C5.52876 11.9224 5.71248 11.5668 5.71248 11.307C5.71248 10.2321 3.95029 10.1842 3.95029 8.41799C3.95029 6.93147 5.01725 5.49295 7.171 5.49295C8.00087 5.49295 8.41084 5.73065 8.41084 5.73065Z" fill="white"/>
</svg>
