<svg width="228" height="140" viewBox="0 0 228 140" fill="none" xmlns="http://www.w3.org/2000/svg">
<g clip-path="url(#clip0_2041_871)">
<g filter="url(#filter0_dddddd_2041_871)">
<g clip-path="url(#clip1_2041_871)">
<rect x="26" y="16" width="176" height="124" rx="6" fill="white"/>
<path d="M82 55H48C45.7909 55 44 56.7909 44 59C44 61.2091 45.7909 63 48 63H82C84.2091 63 86 61.2091 86 59C86 56.7909 84.2091 55 82 55Z" fill="#0F0F10" fill-opacity="0.35"/>
<path d="M57 81H47C45.3431 81 44 82.3431 44 84C44 85.6569 45.3431 87 47 87H57C58.6569 87 60 85.6569 60 84C60 82.3431 58.6569 81 57 81Z" fill="#C3FEB3"/>
<path d="M101 68H45C44.4477 68 44 68.4477 44 69C44 69.5523 44.4477 70 45 70H101C101.552 70 102 69.5523 102 69C102 68.4477 101.552 68 101 68Z" fill="#0F0F10" fill-opacity="0.08"/>
<path d="M83 73H45C44.4477 73 44 73.4477 44 74C44 74.5523 44.4477 75 45 75H83C83.5523 75 84 74.5523 84 74C84 73.4477 83.5523 73 83 73Z" fill="#0F0F10" fill-opacity="0.08"/>
<rect x="118" y="43" width="66" height="56" rx="8" fill="#0F0F10" fill-opacity="0.04"/>
<path d="M33.025 23C33.5911 23 34.05 22.5523 34.05 22C34.05 21.4477 33.5911 21 33.025 21C32.4589 21 32 21.4477 32 22C32 22.5523 32.4589 23 33.025 23Z" fill="#0F0F10" fill-opacity="0.08"/>
<path d="M39.1754 23C39.7415 23 40.2004 22.5523 40.2004 22C40.2004 21.4477 39.7415 21 39.1754 21C38.6093 21 38.1504 21.4477 38.1504 22C38.1504 22.5523 38.6093 23 39.1754 23Z" fill="#0F0F10" fill-opacity="0.08"/>
<path d="M45.3248 23C45.8909 23 46.3498 22.5523 46.3498 22C46.3498 21.4477 45.8909 21 45.3248 21C44.7587 21 44.2998 21.4477 44.2998 22C44.2998 22.5523 44.7587 23 45.3248 23Z" fill="#0F0F10" fill-opacity="0.08"/>
<path d="M194.975 23C195.541 23 196 22.5523 196 22C196 21.4477 195.541 21 194.975 21C194.409 21 193.95 21.4477 193.95 22C193.95 22.5523 194.409 23 194.975 23Z" fill="#0F0F10" fill-opacity="0.08"/>
<path d="M161.15 20H66.8498C65.7176 20 64.7998 20.8954 64.7998 22C64.7998 23.1046 65.7176 24 66.8498 24H161.15C162.282 24 163.2 23.1046 163.2 22C163.2 20.8954 162.282 20 161.15 20Z" fill="#0F0F10" fill-opacity="0.06"/>
<path d="M73 124H47C45.3431 124 44 125.343 44 127C44 128.657 45.3431 130 47 130H73C74.6569 130 76 128.657 76 127C76 125.343 74.6569 124 73 124Z" fill="#0F0F10" fill-opacity="0.35"/>
<path d="M91 137H45C44.4477 137 44 137.448 44 138C44 138.552 44.4477 139 45 139H91C91.5523 139 92 138.552 92 138C92 137.448 91.5523 137 91 137Z" fill="#0F0F10" fill-opacity="0.08"/>
<path d="M180 120H122C119.791 120 118 121.791 118 124V156C118 158.209 119.791 160 122 160H180C182.209 160 184 158.209 184 156V124C184 121.791 182.209 120 180 120Z" fill="#0F0F10" fill-opacity="0.04"/>
</g>
</g>
</g>
<defs>
<filter id="filter0_dddddd_2041_871" x="14" y="15" width="200" height="161" filterUnits="userSpaceOnUse" color-interpolation-filters="sRGB">
<feFlood flood-opacity="0" result="BackgroundImageFix"/>
<feColorMatrix in="SourceAlpha" type="matrix" values="0 0 0 0 0 0 0 0 0 0 0 0 0 0 0 0 0 0 127 0" result="hardAlpha"/>
<feMorphology radius="12" operator="erode" in="SourceAlpha" result="effect1_dropShadow_2041_871"/>
<feOffset dy="24"/>
<feGaussianBlur stdDeviation="12"/>
<feComposite in2="hardAlpha" operator="out"/>
<feColorMatrix type="matrix" values="0 0 0 0 0.0235294 0 0 0 0 0.337255 0 0 0 0 0.52549 0 0 0 0.04 0"/>
<feBlend mode="normal" in2="BackgroundImageFix" result="effect1_dropShadow_2041_871"/>
<feColorMatrix in="SourceAlpha" type="matrix" values="0 0 0 0 0 0 0 0 0 0 0 0 0 0 0 0 0 0 127 0" result="hardAlpha"/>
<feMorphology radius="6" operator="erode" in="SourceAlpha" result="effect2_dropShadow_2041_871"/>
<feOffset dy="6"/>
<feGaussianBlur stdDeviation="6"/>
<feComposite in2="hardAlpha" operator="out"/>
<feColorMatrix type="matrix" values="0 0 0 0 0.0235294 0 0 0 0 0.337255 0 0 0 0 0.52549 0 0 0 0.02 0"/>
<feBlend mode="normal" in2="effect1_dropShadow_2041_871" result="effect2_dropShadow_2041_871"/>
<feColorMatrix in="SourceAlpha" type="matrix" values="0 0 0 0 0 0 0 0 0 0 0 0 0 0 0 0 0 0 127 0" result="hardAlpha"/>
<feMorphology radius="3" operator="erode" in="SourceAlpha" result="effect3_dropShadow_2041_871"/>
<feOffset dy="6"/>
<feGaussianBlur stdDeviation="4"/>
<feComposite in2="hardAlpha" operator="out"/>
<feColorMatrix type="matrix" values="0 0 0 0 0.00392157 0 0 0 0 0.133333 0 0 0 0 0.211765 0 0 0 0.01 0"/>
<feBlend mode="normal" in2="effect2_dropShadow_2041_871" result="effect3_dropShadow_2041_871"/>
<feColorMatrix in="SourceAlpha" type="matrix" values="0 0 0 0 0 0 0 0 0 0 0 0 0 0 0 0 0 0 127 0" result="hardAlpha"/>
<feMorphology radius="1.5" operator="erode" in="SourceAlpha" result="effect4_dropShadow_2041_871"/>
<feOffset dy="3"/>
<feGaussianBlur stdDeviation="1.5"/>
<feComposite in2="hardAlpha" operator="out"/>
<feColorMatrix type="matrix" values="0 0 0 0 0.00392157 0 0 0 0 0.133333 0 0 0 0 0.211765 0 0 0 0.06 0"/>
<feBlend mode="normal" in2="effect3_dropShadow_2041_871" result="effect4_dropShadow_2041_871"/>
<feColorMatrix in="SourceAlpha" type="matrix" values="0 0 0 0 0 0 0 0 0 0 0 0 0 0 0 0 0 0 127 0" result="hardAlpha"/>
<feMorphology radius="0.5" operator="erode" in="SourceAlpha" result="effect5_dropShadow_2041_871"/>
<feOffset dy="1"/>
<feGaussianBlur stdDeviation="0.5"/>
<feComposite in2="hardAlpha" operator="out"/>
<feColorMatrix type="matrix" values="0 0 0 0 0.00392157 0 0 0 0 0.133333 0 0 0 0 0.211765 0 0 0 0.04 0"/>
<feBlend mode="normal" in2="effect4_dropShadow_2041_871" result="effect5_dropShadow_2041_871"/>
<feColorMatrix in="SourceAlpha" type="matrix" values="0 0 0 0 0 0 0 0 0 0 0 0 0 0 0 0 0 0 127 0" result="hardAlpha"/>
<feMorphology radius="1" operator="dilate" in="SourceAlpha" result="effect6_dropShadow_2041_871"/>
<feOffset/>
<feComposite in2="hardAlpha" operator="out"/>
<feColorMatrix type="matrix" values="0 0 0 0 0.0235294 0 0 0 0 0.337255 0 0 0 0 0.52549 0 0 0 0.04 0"/>
<feBlend mode="normal" in2="effect5_dropShadow_2041_871" result="effect6_dropShadow_2041_871"/>
<feBlend mode="normal" in="SourceGraphic" in2="effect6_dropShadow_2041_871" result="shape"/>
</filter>
<clipPath id="clip0_2041_871">
<rect width="228" height="140" fill="white"/>
</clipPath>
<clipPath id="clip1_2041_871">
<rect x="26" y="16" width="176" height="124" rx="6" fill="white"/>
</clipPath>
</defs>
</svg>
