<svg width="228" height="140" viewBox="0 0 228 140" fill="none" xmlns="http://www.w3.org/2000/svg">
<g clip-path="url(#clip0_2041_916)">
<g filter="url(#filter0_dddddd_2041_916)">
<g clip-path="url(#clip1_2041_916)">
<rect x="26" y="16" width="176" height="124" rx="6" fill="white"/>
<rect x="34" y="36" width="160" height="65" rx="7" fill="#0F0F10" fill-opacity="0.04"/>
<path d="M131 53H97C94.7909 53 93 54.7909 93 57C93 59.2091 94.7909 61 97 61H131C133.209 61 135 59.2091 135 57C135 54.7909 133.209 53 131 53Z" fill="#0F0F10" fill-opacity="0.35"/>
<path d="M119 79H109C107.343 79 106 80.3431 106 82C106 83.6569 107.343 85 109 85H119C120.657 85 122 83.6569 122 82C122 80.3431 120.657 79 119 79Z" fill="#C3FEB3"/>
<path d="M142 66H86C85.4477 66 85 66.4477 85 67C85 67.5523 85.4477 68 86 68H142C142.552 68 143 67.5523 143 67C143 66.4477 142.552 66 142 66Z" fill="#0F0F10" fill-opacity="0.08"/>
<path d="M133 71H95C94.4477 71 94 71.4477 94 72C94 72.5523 94.4477 73 95 73H133C133.552 73 134 72.5523 134 72C134 71.4477 133.552 71 133 71Z" fill="#0F0F10" fill-opacity="0.08"/>
<path d="M33.025 23C33.5911 23 34.05 22.5523 34.05 22C34.05 21.4477 33.5911 21 33.025 21C32.4589 21 32 21.4477 32 22C32 22.5523 32.4589 23 33.025 23Z" fill="#0F0F10" fill-opacity="0.08"/>
<path d="M39.1754 23C39.7415 23 40.2004 22.5523 40.2004 22C40.2004 21.4477 39.7415 21 39.1754 21C38.6093 21 38.1504 21.4477 38.1504 22C38.1504 22.5523 38.6093 23 39.1754 23Z" fill="#0F0F10" fill-opacity="0.08"/>
<path d="M45.3248 23C45.8909 23 46.3498 22.5523 46.3498 22C46.3498 21.4477 45.8909 21 45.3248 21C44.7587 21 44.2998 21.4477 44.2998 22C44.2998 22.5523 44.7587 23 45.3248 23Z" fill="#0F0F10" fill-opacity="0.08"/>
<path d="M194.975 23C195.541 23 196 22.5523 196 22C196 21.4477 195.541 21 194.975 21C194.409 21 193.95 21.4477 193.95 22C193.95 22.5523 194.409 23 194.975 23Z" fill="#0F0F10" fill-opacity="0.08"/>
<path d="M161.15 20H66.8498C65.7176 20 64.7998 20.8954 64.7998 22C64.7998 23.1046 65.7176 24 66.8498 24H161.15C162.282 24 163.2 23.1046 163.2 22C163.2 20.8954 162.282 20 161.15 20Z" fill="#0F0F10" fill-opacity="0.06"/>
<path d="M157 120H131C129.343 120 128 121.343 128 123C128 124.657 129.343 126 131 126H157C158.657 126 160 124.657 160 123C160 121.343 158.657 120 157 120Z" fill="#0F0F10" fill-opacity="0.35"/>
<path d="M175 133H129C128.448 133 128 133.448 128 134C128 134.552 128.448 135 129 135H175C175.552 135 176 134.552 176 134C176 133.448 175.552 133 175 133Z" fill="#0F0F10" fill-opacity="0.08"/>
<path d="M183 138H129C128.448 138 128 138.448 128 139C128 139.552 128.448 140 129 140H183C183.552 140 184 139.552 184 139C184 138.448 183.552 138 183 138Z" fill="#22328A" fill-opacity="0.08"/>
<path d="M106 116H48C45.7909 116 44 117.791 44 120V152C44 154.209 45.7909 156 48 156H106C108.209 156 110 154.209 110 152V120C110 117.791 108.209 116 106 116Z" fill="#0F0F10" fill-opacity="0.04"/>
</g>
</g>
</g>
<defs>
<filter id="filter0_dddddd_2041_916" x="14" y="15" width="200" height="161" filterUnits="userSpaceOnUse" color-interpolation-filters="sRGB">
<feFlood flood-opacity="0" result="BackgroundImageFix"/>
<feColorMatrix in="SourceAlpha" type="matrix" values="0 0 0 0 0 0 0 0 0 0 0 0 0 0 0 0 0 0 127 0" result="hardAlpha"/>
<feMorphology radius="12" operator="erode" in="SourceAlpha" result="effect1_dropShadow_2041_916"/>
<feOffset dy="24"/>
<feGaussianBlur stdDeviation="12"/>
<feComposite in2="hardAlpha" operator="out"/>
<feColorMatrix type="matrix" values="0 0 0 0 0.0235294 0 0 0 0 0.337255 0 0 0 0 0.52549 0 0 0 0.04 0"/>
<feBlend mode="normal" in2="BackgroundImageFix" result="effect1_dropShadow_2041_916"/>
<feColorMatrix in="SourceAlpha" type="matrix" values="0 0 0 0 0 0 0 0 0 0 0 0 0 0 0 0 0 0 127 0" result="hardAlpha"/>
<feMorphology radius="6" operator="erode" in="SourceAlpha" result="effect2_dropShadow_2041_916"/>
<feOffset dy="6"/>
<feGaussianBlur stdDeviation="6"/>
<feComposite in2="hardAlpha" operator="out"/>
<feColorMatrix type="matrix" values="0 0 0 0 0.0235294 0 0 0 0 0.337255 0 0 0 0 0.52549 0 0 0 0.02 0"/>
<feBlend mode="normal" in2="effect1_dropShadow_2041_916" result="effect2_dropShadow_2041_916"/>
<feColorMatrix in="SourceAlpha" type="matrix" values="0 0 0 0 0 0 0 0 0 0 0 0 0 0 0 0 0 0 127 0" result="hardAlpha"/>
<feMorphology radius="3" operator="erode" in="SourceAlpha" result="effect3_dropShadow_2041_916"/>
<feOffset dy="6"/>
<feGaussianBlur stdDeviation="4"/>
<feComposite in2="hardAlpha" operator="out"/>
<feColorMatrix type="matrix" values="0 0 0 0 0.00392157 0 0 0 0 0.133333 0 0 0 0 0.211765 0 0 0 0.01 0"/>
<feBlend mode="normal" in2="effect2_dropShadow_2041_916" result="effect3_dropShadow_2041_916"/>
<feColorMatrix in="SourceAlpha" type="matrix" values="0 0 0 0 0 0 0 0 0 0 0 0 0 0 0 0 0 0 127 0" result="hardAlpha"/>
<feMorphology radius="1.5" operator="erode" in="SourceAlpha" result="effect4_dropShadow_2041_916"/>
<feOffset dy="3"/>
<feGaussianBlur stdDeviation="1.5"/>
<feComposite in2="hardAlpha" operator="out"/>
<feColorMatrix type="matrix" values="0 0 0 0 0.00392157 0 0 0 0 0.133333 0 0 0 0 0.211765 0 0 0 0.06 0"/>
<feBlend mode="normal" in2="effect3_dropShadow_2041_916" result="effect4_dropShadow_2041_916"/>
<feColorMatrix in="SourceAlpha" type="matrix" values="0 0 0 0 0 0 0 0 0 0 0 0 0 0 0 0 0 0 127 0" result="hardAlpha"/>
<feMorphology radius="0.5" operator="erode" in="SourceAlpha" result="effect5_dropShadow_2041_916"/>
<feOffset dy="1"/>
<feGaussianBlur stdDeviation="0.5"/>
<feComposite in2="hardAlpha" operator="out"/>
<feColorMatrix type="matrix" values="0 0 0 0 0.00392157 0 0 0 0 0.133333 0 0 0 0 0.211765 0 0 0 0.04 0"/>
<feBlend mode="normal" in2="effect4_dropShadow_2041_916" result="effect5_dropShadow_2041_916"/>
<feColorMatrix in="SourceAlpha" type="matrix" values="0 0 0 0 0 0 0 0 0 0 0 0 0 0 0 0 0 0 127 0" result="hardAlpha"/>
<feMorphology radius="1" operator="dilate" in="SourceAlpha" result="effect6_dropShadow_2041_916"/>
<feOffset/>
<feComposite in2="hardAlpha" operator="out"/>
<feColorMatrix type="matrix" values="0 0 0 0 0.0235294 0 0 0 0 0.337255 0 0 0 0 0.52549 0 0 0 0.04 0"/>
<feBlend mode="normal" in2="effect5_dropShadow_2041_916" result="effect6_dropShadow_2041_916"/>
<feBlend mode="normal" in="SourceGraphic" in2="effect6_dropShadow_2041_916" result="shape"/>
</filter>
<clipPath id="clip0_2041_916">
<rect width="228" height="140" fill="white"/>
</clipPath>
<clipPath id="clip1_2041_916">
<rect x="26" y="16" width="176" height="124" rx="6" fill="white"/>
</clipPath>
</defs>
</svg>
