<svg width="12" height="12" viewBox="0 0 12 12" fill="none" xmlns="http://www.w3.org/2000/svg">
<path opacity="0.4" fill-rule="evenodd" clip-rule="evenodd" d="M0.666504 3.50002C0.666504 2.48721 1.48703 1.66669 2.49984 1.66669H9.49984C10.5126 1.66669 11.3332 2.48721 11.3332 3.50002V8.50002C11.3332 9.51282 10.5126 10.3334 9.49984 10.3334H2.49984C1.48703 10.3334 0.666504 9.51282 0.666504 8.50002V3.50002Z" fill="#72FD4E"/>
<path fill-rule="evenodd" clip-rule="evenodd" d="M2.49984 1.66669C1.48686 1.66669 0.666504 2.48804 0.666504 3.50002C0.666504 3.68214 0.765524 3.84985 0.924991 3.93782L5.43632 6.42649C5.7873 6.62005 6.21233 6.62007 6.5633 6.42652L11.0747 3.93782C11.2342 3.84985 11.3332 3.68214 11.3332 3.50002C11.3332 2.48804 10.5128 1.66669 9.49984 1.66669H2.49984Z" fill="#72FD4E"/>
</svg>
