<svg width="12" height="12" viewBox="0 0 12 12" fill="none" xmlns="http://www.w3.org/2000/svg">
<g clip-path="url(#clip0_2275_20489)">
<path opacity="0.4" fill-rule="evenodd" clip-rule="evenodd" d="M4.21233 3.37877C5.00325 3.74973 5.90548 4.40588 6.74912 5.24945C7.59272 6.09313 8.24892 6.9954 8.61992 7.78627C8.80446 8.17973 8.93052 8.57127 8.95866 8.92953C8.98619 9.28053 8.92226 9.6678 8.64252 9.95633C8.63952 9.95947 8.63652 9.9626 8.63339 9.96567C8.34366 10.2554 7.95052 10.3215 7.59466 10.2936C7.23632 10.2655 6.84479 10.1394 6.45138 9.95487C5.66046 9.58387 4.75824 8.92773 3.9146 8.08413C3.07096 7.24047 2.41476 6.33824 2.0438 5.54732C1.85927 5.15388 1.73316 4.76239 1.70506 4.40407C1.67754 4.05305 1.74145 3.66581 2.0212 3.37727C2.02418 3.37413 2.02721 3.37102 2.0303 3.36793C2.32004 3.07819 2.71319 3.01211 3.06908 3.04003C3.42739 3.06813 3.81889 3.19424 4.21233 3.37877Z" fill="#72FD4E"/>
<path fill-rule="evenodd" clip-rule="evenodd" d="M7.0202 4.97848C7.21547 5.17374 7.21547 5.49032 7.0202 5.68558L5.85355 6.85223C5.65829 7.0475 5.34171 7.0475 5.14645 6.85223C4.95118 6.65699 4.95118 6.3404 5.14645 6.14514L6.31311 4.97848C6.50837 4.78322 6.82493 4.78322 7.0202 4.97848Z" fill="#72FD4E"/>
<path fill-rule="evenodd" clip-rule="evenodd" d="M6.3335 3.16602C6.3335 2.88988 6.55736 2.66602 6.8335 2.66602C8.2143 2.66602 9.3335 3.78521 9.3335 5.16602C9.3335 5.44216 9.10963 5.66602 8.8335 5.66602C8.55736 5.66602 8.3335 5.44216 8.3335 5.16602C8.3335 4.33749 7.66203 3.66602 6.8335 3.66602C6.55736 3.66602 6.3335 3.44216 6.3335 3.16602Z" fill="#72FD4E"/>
<path fill-rule="evenodd" clip-rule="evenodd" d="M6.3335 1.16602C6.3335 0.889876 6.55736 0.666016 6.8335 0.666016C9.31896 0.666016 11.3335 2.68054 11.3335 5.16602C11.3335 5.44216 11.1096 5.66602 10.8335 5.66602C10.5574 5.66602 10.3335 5.44216 10.3335 5.16602C10.3335 3.23282 8.7667 1.66602 6.8335 1.66602C6.55736 1.66602 6.3335 1.44216 6.3335 1.16602Z" fill="#72FD4E"/>
<path d="M2.03977 3.3584C2.03748 3.3606 2.03521 3.36283 2.03296 3.36508C0.210367 5.18767 0.210367 8.14222 2.03296 9.96482C3.84345 11.7754 6.77092 11.7874 8.59625 10.001C8.31065 10.2606 7.93552 10.3202 7.59465 10.2934C7.23632 10.2653 6.84478 10.1392 6.45137 9.95469C5.66045 9.58369 4.75823 8.92756 3.91459 8.08403C3.07095 7.24029 2.41475 6.33807 2.04379 5.54714C1.85926 5.1537 1.73315 4.76221 1.70505 4.4039C1.67753 4.05289 1.74144 3.66564 2.02119 3.3771L2.03029 3.36777C2.03343 3.36461 2.03659 3.36149 2.03977 3.3584Z" fill="#72FD4E"/>
</g>
<defs>
<clipPath id="clip0_2275_20489">
<rect width="12" height="12" fill="white"/>
</clipPath>
</defs>
</svg>
