<svg width="18" height="18" viewBox="0 0 18 18" fill="none" xmlns="http://www.w3.org/2000/svg">
<path d="M16.7696 5.65997L9.10647 9.36533C9.03965 9.39777 8.96016 9.39805 8.89105 9.36463L1.22983 5.66178C1.08153 5.99398 1.00021 6.361 1 6.74849V13.25C1 14.7692 2.23079 16 3.75 16H14.25C15.1148 16 15.8861 15.6012 16.3901 14.9775C16.5502 14.7793 16.6833 14.5585 16.784 14.3206C16.9231 13.9916 17 13.6298 17 13.25V6.754V6.75201V6.75001C17 6.36101 16.9184 5.99291 16.7696 5.65997Z" fill="#0CED1E" fill-opacity="0.4"/>
<path d="M9.84583 1.21726C9.31937 0.926928 8.6819 0.926928 8.15544 1.21726L2.42233 4.38034C1.88871 4.67475 1.47128 5.12236 1.23047 5.66178L8.89169 9.36463C8.9608 9.39805 9.04028 9.39777 9.10711 9.36533L16.7702 5.65997C16.5292 5.12115 16.112 4.67445 15.5789 4.38034L9.84583 1.21726Z" fill="#0CED1E"/>
</svg>
