<svg width="18" height="18" viewBox="0 0 18 18" fill="none" xmlns="http://www.w3.org/2000/svg">
<path fill-rule="evenodd" clip-rule="evenodd" d="M2.75 1C3.16421 1 3.5 1.33579 3.5 1.75V16.25C3.5 16.6642 3.16421 17 2.75 17C2.33579 17 2 16.6642 2 16.25V1.75C2 1.33579 2.33579 1 2.75 1Z" fill="#0CED1E"/>
<path fill-rule="evenodd" clip-rule="evenodd" d="M14.25 7C15.2167 7 16 7.78393 16 8.75V9.25C16 10.2161 15.2167 11 14.25 11H6.75C5.78334 11 5 10.2161 5 9.25V8.75C5 7.78393 5.78334 7 6.75 7H14.25Z" fill="#0CED1E"/>
<path fill-rule="evenodd" clip-rule="evenodd" d="M11.25 1.5C12.2167 1.5 13 2.28393 13 3.25V3.75C13 4.71607 12.2167 5.5 11.25 5.5H6.75C5.78334 5.5 5 4.71607 5 3.75V3.25C5 2.28393 5.78334 1.5 6.75 1.5H11.25Z" fill="#0CED1E" fill-opacity="0.4"/>
<path fill-rule="evenodd" clip-rule="evenodd" d="M8.25 12.5C9.21666 12.5 10 13.2839 10 14.25V14.75C10 15.7161 9.21666 16.5 8.25 16.5H6.75C5.78334 16.5 5 15.7161 5 14.75V14.25C5 13.2839 5.78334 12.5 6.75 12.5H8.25Z" fill="#0CED1E" fill-opacity="0.4"/>
</svg>
