<svg width="18" height="18" viewBox="0 0 18 18" fill="none" xmlns="http://www.w3.org/2000/svg">
<path fill-rule="evenodd" clip-rule="evenodd" d="M3.74998 5.20509L14.25 5.2048C14.4489 5.2048 14.6397 5.28381 14.7803 5.42447C14.921 5.56512 15 5.75589 15 5.9548V16.25C15 16.6642 14.6642 17 14.25 17H3.75C3.33579 17 3 16.6642 3 16.25V5.95509C3 5.54089 3.33577 5.2051 3.74998 5.20509Z" fill="#0CED1E" fill-opacity="0.4"/>
<path fill-rule="evenodd" clip-rule="evenodd" d="M2.81238 1.88335C3.12367 1.33773 3.70411 1 4.3328 1H13.6698C14.2976 1 14.8795 1.33699 15.1912 1.88335L16.8957 4.87912C17.0152 5.08929 17.0261 5.34421 16.925 5.56383C16.3335 6.84764 15.0396 7.75 13.5238 7.75C12.6673 7.75 11.887 7.45793 11.2629 6.97852C10.639 7.45788 9.85913 7.75 9.00181 7.75C8.14429 7.75 7.36384 7.4572 6.73982 6.97761C6.1158 7.4572 5.33534 7.75 4.47782 7.75C2.96086 7.75 1.66804 6.84751 1.07663 5.56383C0.975393 5.34409 0.986375 5.08901 1.10612 4.87878L2.81238 1.88335Z" fill="#0CED1E"/>
<path d="M7 16V12.5C7 11.3958 7.89579 10.5 9 10.5C10.1042 10.5 11 11.3958 11 12.5V16H7Z" fill="#0CED1E"/>
<path fill-rule="evenodd" clip-rule="evenodd" d="M1 16.25C1 15.8358 1.33579 15.5 1.75 15.5H16.25C16.6642 15.5 17 15.8358 17 16.25C17 16.6642 16.6642 17 16.25 17H1.75C1.33579 17 1 16.6642 1 16.25Z" fill="#0CED1E"/>
</svg>
