<svg width="18" height="18" viewBox="0 0 18 18" fill="none" xmlns="http://www.w3.org/2000/svg">
<path opacity="0.4" d="M3 13.25V4.75C3 4.312 3.0856 3.8979 3.2092 3.5H2.75C1.5093 3.5 0.5 4.5093 0.5 5.75V12.25C0.5 13.4907 1.5093 14.5 2.75 14.5H3.2092C3.0856 14.1021 3 13.688 3 13.25Z" fill="#0CED1E"/>
<path opacity="0.4" d="M14.9983 13.25V4.75C14.9983 4.312 14.9127 3.8979 14.7891 3.5H15.2483C16.489 3.5 17.4983 4.5093 17.4983 5.75V12.25C17.4983 13.4907 16.489 14.5 15.2483 14.5H14.7891C14.9127 14.1021 14.9983 13.688 14.9983 13.25Z" fill="#0CED1E"/>
<path d="M10.75 2H7.25C5.73122 2 4.5 3.23122 4.5 4.75V13.25C4.5 14.7688 5.73122 16 7.25 16H10.75C12.2688 16 13.5 14.7688 13.5 13.25V4.75C13.5 3.23122 12.2688 2 10.75 2Z" fill="#0CED1E"/>
</svg>
